<?xml version="1.0" encoding="UTF-8"?>
<svg id="Capa_2" data-name="Capa 2" xmlns="http://www.w3.org/2000/svg" viewBox="0 0 878.33 540.01">
  <defs>
    <style>
      .cls-1 {
        fill: #d71f16;
      }

      .cls-2 {
        fill: #fffef9;
      }
    </style>
  </defs>
  <g id="Capa_1-2" data-name="Capa 1">
    <g>
      <g>
        <path class="cls-1" d="M394.63,113.81h209.43c.23,0,.41.18.41.41v58.45c0,.23-.18.41-.41.41h-133.44c-.23,0-.41.18-.41.41v79.48c0,.23.18.41.41.41h103.54c.23,0,.41.18.41.41v58.45c0,.23-.18.41-.41.41h-103.54c-.23,0-.41.18-.41.41v84.29c0,.23.18.41.41.41h133.44c.23,0,.41.18.41.41v60.99c0,.23-.18.41-.41.41h-209.43c-.23,0-.41-.18-.41-.41V114.22c0-.23.18-.41.41-.41Z"/>
        <g>
          <path class="cls-1" d="M697.1,113.8l15.16,39.16c19.76,51.04,14.43,108.39-14.39,154.92h0s-84.21-193.48-84.21-193.48c-.12-.28.08-.6.39-.6h83.05Z"/>
          <path class="cls-1" d="M878.29,114.41l-84.21,193.47h0c-28.83-46.51-34.16-103.84-14.41-154.87l15.18-39.21h83.04c.31,0,.53.32.4.61Z"/>
          <g>
            <path class="cls-2" d="M791.45,322.49l-16.79,40.94c-.42,1.03-1.43,1.7-2.54,1.7h-52.29c-1.11,0-2.12-.67-2.54-1.7l-16.79-40.94c-.3-.74-.27-1.58.1-2.29l42.42-82.91s.06-.02.06.01v60.83c0,1.59,1.19,3.02,2.78,3.08,1.66.07,3.02-1.25,3.02-2.9v-61.02s.04-.04.06-.01l42.42,82.91c.36.71.4,1.55.1,2.29Z"/>
            <path class="cls-1" d="M717.99,374.47h55.97v81.38c0,2.06-1.68,3.74-3.74,3.74h-48.49c-2.06,0-3.74-1.68-3.74-3.74v-81.38h0Z"/>
          </g>
        </g>
        <polygon class="cls-1" points="0 113.8 77.35 113.8 113.46 351.72 158.53 113.8 227.83 113.8 270.29 353.1 312.37 113.8 376.03 113.8 302.18 459.59 234.39 459.59 188.52 220.41 141.64 459.59 74.6 459.59 0 113.8"/>
      </g>
      <g>
        <path class="cls-2" d="M165.2,53.92h11.71c-4.8,16.2-18.8,27.92-36.77,27.92-22.34,0-40.45-18.11-40.45-40.45S117.8.94,140.14.94c15.99,0,28.22,8.94,34.92,22.11l-11.41,3.29c-4.47-8.46-12.93-14.11-23.52-14.11-16.11,0-29.16,13.05-29.16,29.16s13.05,29.16,29.16,29.16c12.33,0,21.16-6.87,25.05-16.63ZM178.71,41.39c0,2.57-.22,5.09-.64,7.52h-40.75v-11.29l41.15.12c.12,1.06.24,2.35.24,3.65Z"/>
        <path class="cls-2" d="M265.98,80.9h-13.17l-19.64-27.28h-12.35v27.28h-11.29v-38.57h28.1c8.23,0,15.17-4.23,15.17-14.46s-6.7-14.7-14.93-14.7h-28.34V1.88h24.46c20.58,0,30.1,10.35,30.1,25.28,0,12.23-6.7,22.22-18.46,25.4l20.34,28.34Z"/>
        <path class="cls-2" d="M366.59,80.9h-12.23l-7.64-16.93h-.04l-17.71-39.04-17.71,39.04h-.04l-7.64,16.93h-12.23L328.96,0l37.63,80.9Z"/>
        <path class="cls-2" d="M438.84,1.88v11.29h-45.15V1.88h45.15ZM393.69,35.91h39.51v11.13h-28.22v33.86h-11.29v-44.99Z"/>
        <path class="cls-2" d="M469.13,80.9V1.88h11.29v79.02h-11.29Z"/>
        <path class="cls-2" d="M574.34,61.97l4.82,10.58c-6.59,6.11-16.11,9.29-24.69,9.29-22.69,0-41.15-18.11-41.15-40.45S531.78.94,554.47.94c8.58,0,18.11,3.06,24.69,9.17l-4.82,10.58c-5.41-5.53-11.64-8.47-20.58-8.47-16.11,0-29.16,13.05-29.16,29.16s13.05,29.16,29.16,29.16c8.94,0,15.17-2.94,20.58-8.58Z"/>
        <path class="cls-2" d="M642.24,1.08v11.33c-14.68,1.58-25.94,13.85-25.94,28.98s11.26,27.4,25.94,28.98v11.33c-20.83-1.64-37.23-19.05-37.23-40.31s16.39-38.67,37.23-40.31ZM685.91,41.39c0,21.26-16.39,38.67-37.23,40.31v-11.33c14.68-1.58,25.94-13.85,25.94-28.98s-11.26-27.4-25.94-28.98V1.08c20.84,1.64,37.23,19.05,37.23,40.31Z"/>
        <path class="cls-2" d="M774.94,57.73c0,13.76-11.41,24.1-29.86,24.1s-29.16-11.41-30.34-12.82l5.65-10.11c6.58,7.29,15.64,11.64,24.93,11.64,11.88,0,18.34-4.82,18.34-12.35,0-6.35-7.17-10.23-17.99-12.11-21.99-3.76-28.22-11.64-28.22-22.22,0-12.82,9.99-22.93,28.46-22.93,3.29,0,15.76.35,25.51,9.41l-5.41,10.23c-4.12-4-10.46-8.35-20.34-8.35-10.82,0-16.93,4.12-16.93,11.17,0,6.11,5.41,8.94,17.87,11.41,18.81,3.65,28.34,9.64,28.34,22.93Z"/>
      </g>
      <g>
        <path class="cls-2" d="M113.91,540.01c-2.7,0-5.21-.52-7.52-1.56s-4.34-2.44-6.08-4.22c-1.78-1.78-3.16-3.86-4.14-6.25-.98-2.39-1.47-5.04-1.47-7.97s.5-5.44,1.5-7.89c1-2.44,2.37-4.55,4.11-6.33,1.74-1.78,3.77-3.18,6.08-4.22,2.31-1.04,4.82-1.55,7.52-1.55s5.27.55,7.69,1.67c2.42,1.11,4.64,2.79,6.64,5.05l-3.5,2.89c-3.18-3.48-6.79-5.22-10.83-5.22-2.07,0-3.98.41-5.72,1.22-1.74.81-3.3,1.93-4.66,3.33-1.33,1.41-2.38,3.04-3.14,4.91-.76,1.87-1.14,3.91-1.14,6.14s.38,4.32,1.14,6.19c.76,1.87,1.8,3.49,3.14,4.86,1.37,1.41,2.92,2.52,4.66,3.33,1.74.81,3.65,1.22,5.72,1.22,4.04,0,7.64-1.74,10.83-5.22l3.5,2.89c-2,2.26-4.21,3.94-6.64,5.05-2.42,1.11-4.99,1.67-7.69,1.67Z"/>
        <path class="cls-2" d="M159.05,539.45h-5.22l-10-16.38h-6.22v16.38h-4.39l.06-38.87h14.83c1.81,0,3.45.53,4.92,1.58,1.46,1.05,2.64,2.44,3.53,4.14.89,1.7,1.33,3.55,1.33,5.55,0,1.7-.4,3.35-1.19,4.94-.8,1.59-1.86,2.94-3.19,4.05-1.33,1.11-2.85,1.78-4.55,2l10.11,16.6ZM153.44,511.85c0-1.11-.24-2.19-.72-3.25-.48-1.05-1.13-1.92-1.94-2.61-.81-.68-1.76-1.03-2.83-1.03h-10.33v13.61h10.22c1.04,0,1.97-.35,2.8-1.05s1.51-1.57,2.03-2.61c.52-1.04.78-2.05.78-3.05Z"/>
        <path class="cls-2" d="M185.04,539.45h-20.99v-38.87h20.99v4h-16.6v13.94h13.44v3.78h-13.44v13.16h16.6v4Z"/>
        <path class="cls-2" d="M189.26,539.45l12.99-38.87h5.61l13.05,38.87h-4.72l-3.28-9.89h-15.72l-3.28,9.89h-4.66ZM205.09,505.91l-6.66,19.94h13.27l-6.61-19.94Z"/>
        <path class="cls-2" d="M225.91,539.45v-38.87h9.16l10.88,27.6,10.88-27.6h9.16v38.87h-4.44v-33.87h-1.89l-11.27,27.82h-4.83l-11.33-27.82h-1.94v33.87h-4.39Z"/>
        <path class="cls-2" d="M309.04,520.01c0,2.81-.49,5.43-1.47,7.86-.98,2.43-2.34,4.54-4.08,6.36-1.74,1.81-3.76,3.23-6.05,4.25-2.3,1.02-4.76,1.53-7.39,1.53s-5.15-.52-7.44-1.56-4.31-2.47-6.05-4.3-3.1-3.95-4.08-6.36-1.47-5-1.47-7.78.5-5.32,1.5-7.75c1-2.42,2.39-4.55,4.17-6.39s3.81-3.27,6.11-4.31c2.29-1.04,4.72-1.55,7.27-1.55s5.09.53,7.39,1.58c2.3,1.06,4.31,2.51,6.05,4.36,1.74,1.85,3.1,3.98,4.08,6.39.98,2.41,1.47,4.96,1.47,7.66ZM304.55,520.01c0-2.15-.38-4.17-1.14-6.08-.76-1.91-1.8-3.59-3.11-5.05-1.31-1.46-2.85-2.61-4.61-3.44-1.76-.83-3.64-1.25-5.64-1.25s-3.93.42-5.69,1.25c-1.76.83-3.3,1.98-4.61,3.44-1.31,1.46-2.35,3.15-3.11,5.05-.76,1.91-1.14,3.93-1.14,6.08s.38,4.19,1.14,6.11c.76,1.93,1.8,3.62,3.11,5.08,1.31,1.46,2.85,2.61,4.61,3.44,1.76.83,3.66,1.25,5.69,1.25s3.92-.42,5.66-1.25c1.74-.83,3.28-1.98,4.61-3.44,1.33-1.46,2.37-3.14,3.11-5.05.74-1.91,1.11-3.95,1.11-6.14Z"/>
        <path class="cls-2" d="M326.43,539.95c-2.44,0-4.82-.48-7.14-1.44-2.32-.96-4.25-2.15-5.8-3.55l3.39-3.11c1.37,1.11,2.91,1.99,4.61,2.64,1.7.65,3.31.97,4.83.97s2.92-.29,4.19-.89c1.28-.59,2.3-1.42,3.08-2.47s1.18-2.29,1.22-3.69c.04-1.78-.59-3.2-1.89-4.28-1.3-1.07-3.3-1.94-6-2.61-2.63-.67-4.92-1.49-6.89-2.47-1.96-.98-3.46-2.23-4.5-3.75-1.04-1.52-1.46-3.41-1.28-5.66.26-3,1.51-5.3,3.75-6.91,2.24-1.61,5.19-2.42,8.86-2.42,1.78,0,3.66.21,5.64.64,1.98.43,3.84,1.14,5.58,2.14l-2.94,3.55c-1.3-.55-2.63-1.01-4-1.36-1.37-.35-2.76-.55-4.17-.58-1.37,0-2.68.17-3.91.53-1.24.35-2.25.93-3.03,1.72s-1.18,1.86-1.22,3.19c0,1.37.37,2.47,1.11,3.31.74.83,1.74,1.51,3,2.03,1.26.52,2.67,1,4.22,1.44,2.63.7,4.84,1.48,6.64,2.33,1.8.85,3.16,1.98,4.08,3.39.93,1.41,1.39,3.33,1.39,5.78,0,2.18-.58,4.15-1.75,5.89-1.16,1.74-2.72,3.12-4.66,4.14-1.94,1.02-4.08,1.53-6.41,1.53Z"/>
        <path class="cls-2" d="M393.45,504.63h-12.11v34.82h-4.44v-34.82h-12.11v-4.05h28.65v4.05Z"/>
        <path class="cls-2" d="M422.33,500.58h4.39v38.87h-4.39v-4.39c-1.26,1.41-2.75,2.54-4.47,3.39-1.72.85-3.58,1.28-5.58,1.28-2.67,0-5.08-.62-7.25-1.86-2.17-1.24-3.9-2.91-5.19-5-1.3-2.09-1.94-4.43-1.94-7.03v-25.27h4.39l.06,25.27c0,1.74.44,3.32,1.33,4.75.89,1.43,2.09,2.56,3.61,3.42,1.52.85,3.18,1.28,5,1.28,1.92,0,3.65-.42,5.16-1.25s2.71-1.97,3.58-3.42c.87-1.44,1.3-3.03,1.3-4.77v-25.27Z"/>
        <path class="cls-2" d="M457.76,539.45h-4.39v-38.87h4.39v38.87Z"/>
        <path class="cls-2" d="M463.31,539.45v-38.87h9.16l10.88,27.6,10.88-27.6h9.16v38.87h-4.44v-33.87h-1.89l-11.27,27.82h-4.83l-11.33-27.82h-1.94v33.87h-4.39Z"/>
        <path class="cls-2" d="M508.4,539.45l12.99-38.87h5.61l13.05,38.87h-4.72l-3.28-9.89h-15.72l-3.28,9.89h-4.66ZM524.23,505.91l-6.66,19.94h13.27l-6.61-19.94Z"/>
        <path class="cls-2" d="M560.27,540.01c-2.63,0-5.09-.51-7.39-1.53-2.3-1.02-4.32-2.43-6.08-4.25-1.76-1.81-3.14-3.9-4.14-6.28-1-2.37-1.5-4.92-1.5-7.66s.49-5.39,1.47-7.83c.98-2.44,2.35-4.59,4.11-6.44,1.76-1.85,3.79-3.3,6.11-4.36,2.31-1.05,4.78-1.58,7.41-1.58,3.15,0,6.07.71,8.77,2.14,2.7,1.43,5.02,3.51,6.94,6.25l-3.83,2.5c-1.52-2.07-3.3-3.64-5.33-4.69-2.04-1.05-4.22-1.58-6.55-1.58-2.07,0-3.99.42-5.75,1.25-1.76.83-3.3,1.97-4.61,3.42-1.31,1.44-2.33,3.1-3.05,4.97-.72,1.87-1.08,3.86-1.08,5.97s.37,3.97,1.11,5.8c.74,1.83,1.78,3.45,3.11,4.86,1.33,1.41,2.88,2.52,4.64,3.33,1.76.81,3.64,1.22,5.64,1.22,2.78,0,5.08-.41,6.91-1.22,1.83-.81,3.42-2.26,4.75-4.33v-4.72h-6.83v-4.33h11.44v10.16c-1.55,3.11-3.66,5.38-6.3,6.8-2.65,1.43-5.97,2.14-9.97,2.14Z"/>
        <path class="cls-2" d="M585.93,539.45h-4.39v-38.87h4.39v38.87Z"/>
        <path class="cls-2" d="M620.58,539.45h-6.11l-18.6-33.82v33.76h-4.39v-38.87h6.44l18.27,33.43v-33.43h4.39v38.93Z"/>
        <path class="cls-2" d="M625.58,539.45l12.99-38.87h5.61l13.05,38.87h-4.72l-3.28-9.89h-15.72l-3.28,9.89h-4.66ZM641.4,505.91l-6.66,19.94h13.27l-6.61-19.94Z"/>
        <path class="cls-2" d="M677.55,540.01c-2.7,0-5.21-.52-7.52-1.56-2.32-1.04-4.34-2.44-6.08-4.22-1.78-1.78-3.16-3.86-4.14-6.25-.98-2.39-1.47-5.04-1.47-7.97s.5-5.44,1.5-7.89,2.37-4.55,4.11-6.33c1.74-1.78,3.77-3.18,6.08-4.22,2.31-1.04,4.82-1.55,7.52-1.55s5.27.55,7.69,1.67c2.42,1.11,4.64,2.79,6.63,5.05l-3.5,2.89c-3.18-3.48-6.79-5.22-10.83-5.22-2.07,0-3.98.41-5.72,1.22-1.74.81-3.29,1.93-4.66,3.33-1.33,1.41-2.38,3.04-3.14,4.91-.76,1.87-1.14,3.91-1.14,6.14s.38,4.32,1.14,6.19c.76,1.87,1.8,3.49,3.14,4.86,1.37,1.41,2.92,2.52,4.66,3.33,1.74.81,3.65,1.22,5.72,1.22,4.03,0,7.64-1.74,10.83-5.22l3.5,2.89c-2,2.26-4.21,3.94-6.63,5.05-2.43,1.11-4.99,1.67-7.69,1.67Z"/>
        <path class="cls-2" d="M701.26,539.45h-4.39v-38.87h4.39v38.87Z"/>
        <path class="cls-2" d="M744.3,520.01c0,2.81-.49,5.43-1.47,7.86-.98,2.43-2.34,4.54-4.08,6.36-1.74,1.81-3.76,3.23-6.05,4.25-2.3,1.02-4.76,1.53-7.39,1.53s-5.15-.52-7.44-1.56-4.31-2.47-6.05-4.3c-1.74-1.83-3.1-3.95-4.08-6.36-.98-2.41-1.47-5-1.47-7.78s.5-5.32,1.5-7.75c1-2.42,2.39-4.55,4.17-6.39,1.78-1.83,3.81-3.27,6.11-4.31,2.29-1.04,4.72-1.55,7.27-1.55s5.09.53,7.39,1.58c2.3,1.06,4.31,2.51,6.05,4.36,1.74,1.85,3.1,3.98,4.08,6.39.98,2.41,1.47,4.96,1.47,7.66ZM739.8,520.01c0-2.15-.38-4.17-1.14-6.08-.76-1.91-1.8-3.59-3.11-5.05-1.31-1.46-2.85-2.61-4.61-3.44-1.76-.83-3.64-1.25-5.64-1.25s-3.93.42-5.69,1.25c-1.76.83-3.3,1.98-4.61,3.44-1.31,1.46-2.35,3.15-3.11,5.05-.76,1.91-1.14,3.93-1.14,6.08s.38,4.19,1.14,6.11c.76,1.93,1.8,3.62,3.11,5.08,1.31,1.46,2.85,2.61,4.61,3.44,1.76.83,3.66,1.25,5.69,1.25s3.92-.42,5.66-1.25c1.74-.83,3.28-1.98,4.61-3.44,1.33-1.46,2.37-3.14,3.11-5.05.74-1.91,1.11-3.95,1.11-6.14ZM723.59,496.75h2.67l2.22-7.44h-3.5l-1.39,7.44Z"/>
        <path class="cls-2" d="M778.4,539.45h-6.11l-18.6-33.82v33.76h-4.39v-38.87h6.44l18.27,33.43v-33.43h4.39v38.93Z"/>
      </g>
    </g>
  </g>
</svg>